<?xml version="1.0" encoding="ISO-8859-1" standalone="no"?>
<!DOCTYPE svg PUBLIC "-//W3C//DTD SVG 1.1//EN" "http://www.w3.org/Graphics/SVG/1.1/DTD/svg11.dtd">
<svg version="1.1" baseProfile="full" id="body" width="8in" height="8in" viewBox="0 0 1 1" preserveAspectRatio="none" xmlns="http://www.w3.org/2000/svg" xmlns:xlink="http://www.w3.org/1999/xlink" xmlns:ev="http://www.w3.org/2001/xml-events">
<title>SVG drawing</title>
<desc>This was produced by version 4.4 of GNU libplot, a free library for exporting 2-D vector graphics.</desc>
<rect id="background" x="0" y="0" width="1" height="1" stroke="none" fill="white"/>
<g id="content" transform="translate(0,1) scale(0.0016667,-0.0033333) " xml:space="preserve" stroke="black" stroke-linecap="butt" stroke-linejoin="miter" stroke-miterlimit="10.433" stroke-dasharray="none" stroke-dashoffset="0" stroke-opacity="1" fill="none" fill-rule="evenodd" fill-opacity="1" font-style="normal" font-variant="normal" font-weight="normal" font-stretch="normal" font-size-adjust="none" letter-spacing="normal" word-spacing="normal" text-anchor="start">
<line x1="208.72" y1="279.08" x2="208.72" y2="271.23" stroke-width="0.53098" stroke-linecap="round" />
<polyline points="208.72,279.08 212.08,279.08 213.21,278.71 213.58,278.33 213.95,277.59 213.95,276.46 213.58,275.72 213.21,275.34 212.08,274.97 208.72,274.97 " stroke-width="0.53098" stroke-linecap="round" stroke-linejoin="round" />
<polygon points="218.07,276.46 217.32,276.09 216.57,275.34 216.2,274.22 216.2,273.47 216.57,272.35 217.32,271.6 218.07,271.23 219.19,271.23 219.94,271.6 220.69,272.35 221.06,273.47 221.06,274.22 220.69,275.34 219.94,276.09 219.19,276.46 " stroke-width="0.53098" stroke-linejoin="round" />
<line x1="223.68" y1="276.46" x2="223.68" y2="268.61" stroke-width="0.53098" stroke-linecap="round" />
<polyline points="223.68,275.34 224.42,276.09 225.17,276.46 226.29,276.46 227.04,276.09 227.79,275.34 228.16,274.22 228.16,273.47 227.79,272.35 227.04,271.6 226.29,271.23 225.17,271.23 224.42,271.6 223.68,272.35 " stroke-width="0.53098" stroke-linecap="round" stroke-linejoin="round" />
<polyline points="230.78,276.46 230.78,272.72 231.16,271.6 231.9,271.23 233.02,271.23 233.77,271.6 234.89,272.72 " stroke-width="0.53098" stroke-linecap="round" stroke-linejoin="round" />
<line x1="234.89" y1="276.46" x2="234.89" y2="271.23" stroke-width="0.53098" stroke-linecap="round" />
<line x1="237.89" y1="279.08" x2="237.89" y2="271.23" stroke-width="0.53098" stroke-linecap="round" />
<line x1="244.99" y1="276.46" x2="244.99" y2="271.23" stroke-width="0.53098" stroke-linecap="round" />
<polyline points="244.99,275.34 244.24,276.09 243.49,276.46 242.37,276.46 241.63,276.09 240.88,275.34 240.5,274.22 240.5,273.47 240.88,272.35 241.63,271.6 242.37,271.23 243.49,271.23 244.24,271.6 244.99,272.35 " stroke-width="0.53098" stroke-linecap="round" stroke-linejoin="round" />
<polyline points="248.36,279.08 248.36,272.72 248.73,271.6 249.48,271.23 250.23,271.23 " stroke-width="0.53098" stroke-linecap="round" stroke-linejoin="round" />
<line x1="247.23" y1="276.46" x2="249.85" y2="276.46" stroke-width="0.53098" stroke-linecap="round" />
<polygon points="252.1,279.08 252.47,278.71 252.84,279.08 252.47,279.46 " stroke-width="0.53098" stroke-linejoin="round" />
<line x1="252.47" y1="276.46" x2="252.47" y2="271.23" stroke-width="0.53098" stroke-linecap="round" />
<polygon points="256.96,276.46 256.21,276.09 255.46,275.34 255.09,274.22 255.09,273.47 255.46,272.35 256.21,271.6 256.96,271.23 258.08,271.23 258.83,271.6 259.57,272.35 259.95,273.47 259.95,274.22 259.57,275.34 258.83,276.09 258.08,276.46 " stroke-width="0.53098" stroke-linejoin="round" />
<line x1="262.57" y1="276.46" x2="262.57" y2="271.23" stroke-width="0.53098" stroke-linecap="round" />
<polyline points="262.57,274.97 263.69,276.09 264.43,276.46 265.56,276.46 266.3,276.09 266.68,274.97 266.68,271.23 " stroke-width="0.53098" stroke-linecap="round" stroke-linejoin="round" />
<polyline points="270.04,278.33 269.67,278.71 270.04,279.08 270.42,278.71 270.42,277.96 270.04,277.21 269.67,276.84 " stroke-width="0.53098" stroke-linecap="round" stroke-linejoin="round" />
<polyline points="277.15,275.34 276.77,276.09 275.65,276.46 274.53,276.46 273.41,276.09 273.04,275.34 273.41,274.59 274.16,274.22 276.03,273.85 276.77,273.47 277.15,272.72 277.15,272.35 276.77,271.6 275.65,271.23 274.53,271.23 273.41,271.6 273.04,272.35 " stroke-width="0.53098" stroke-linecap="round" stroke-linejoin="round" />
<line x1="289.86" y1="276.46" x2="289.86" y2="271.23" stroke-width="0.53098" stroke-linecap="round" />
<polyline points="289.86,275.34 289.11,276.09 288.37,276.46 287.24,276.46 286.5,276.09 285.75,275.34 285.37,274.22 285.37,273.47 285.75,272.35 286.5,271.6 287.24,271.23 288.37,271.23 289.11,271.6 289.86,272.35 " stroke-width="0.53098" stroke-linecap="round" stroke-linejoin="round" />
<line x1="292.11" y1="276.46" x2="294.35" y2="271.23" stroke-width="0.53098" stroke-linecap="round" />
<line x1="296.59" y1="276.46" x2="294.35" y2="271.23" stroke-width="0.53098" stroke-linecap="round" />
<polyline points="298.46,274.22 302.95,274.22 302.95,274.97 302.58,275.72 302.2,276.09 301.45,276.46 300.33,276.46 299.58,276.09 298.84,275.34 298.46,274.22 298.46,273.47 298.84,272.35 299.58,271.6 300.33,271.23 301.45,271.23 302.2,271.6 302.95,272.35 " stroke-width="0.53098" stroke-linecap="round" stroke-linejoin="round" />
<line x1="305.57" y1="276.46" x2="305.57" y2="271.23" stroke-width="0.53098" stroke-linecap="round" />
<polyline points="305.57,274.22 305.94,275.34 306.69,276.09 307.44,276.46 308.56,276.46 " stroke-width="0.53098" stroke-linecap="round" stroke-linejoin="round" />
<line x1="314.54" y1="276.46" x2="314.54" y2="271.23" stroke-width="0.53098" stroke-linecap="round" />
<polyline points="314.54,275.34 313.79,276.09 313.05,276.46 311.92,276.46 311.18,276.09 310.43,275.34 310.05,274.22 310.05,273.47 310.43,272.35 311.18,271.6 311.92,271.23 313.05,271.23 313.79,271.6 314.54,272.35 " stroke-width="0.53098" stroke-linecap="round" stroke-linejoin="round" />
<polyline points="321.65,276.46 321.65,270.48 321.27,269.36 320.9,268.99 320.15,268.61 319.03,268.61 318.28,268.99 " stroke-width="0.53098" stroke-linecap="round" stroke-linejoin="round" />
<polyline points="321.65,275.34 320.9,276.09 320.15,276.46 319.03,276.46 318.28,276.09 317.53,275.34 317.16,274.22 317.16,273.47 317.53,272.35 318.28,271.6 319.03,271.23 320.15,271.23 320.9,271.6 321.65,272.35 " stroke-width="0.53098" stroke-linecap="round" stroke-linejoin="round" />
<polyline points="324.26,274.22 328.75,274.22 328.75,274.97 328.38,275.72 328,276.09 327.26,276.46 326.13,276.46 325.39,276.09 324.64,275.34 324.26,274.22 324.26,273.47 324.64,272.35 325.39,271.6 326.13,271.23 327.26,271.23 328,271.6 328.75,272.35 " stroke-width="0.53098" stroke-linecap="round" stroke-linejoin="round" />
<line x1="341.46" y1="276.46" x2="341.46" y2="271.23" stroke-width="0.53098" stroke-linecap="round" />
<polyline points="341.46,275.34 340.72,276.09 339.97,276.46 338.85,276.46 338.1,276.09 337.35,275.34 336.98,274.22 336.98,273.47 337.35,272.35 338.1,271.6 338.85,271.23 339.97,271.23 340.72,271.6 341.46,272.35 " stroke-width="0.53098" stroke-linecap="round" stroke-linejoin="round" />
<line x1="344.46" y1="276.46" x2="344.46" y2="271.23" stroke-width="0.53098" stroke-linecap="round" />
<polyline points="344.46,274.97 345.58,276.09 346.33,276.46 347.45,276.46 348.2,276.09 348.57,274.97 348.57,271.23 " stroke-width="0.53098" stroke-linecap="round" stroke-linejoin="round" />
<line x1="355.67" y1="279.08" x2="355.67" y2="271.23" stroke-width="0.53098" stroke-linecap="round" />
<polyline points="355.67,275.34 354.93,276.09 354.18,276.46 353.06,276.46 352.31,276.09 351.56,275.34 351.19,274.22 351.19,273.47 351.56,272.35 352.31,271.6 353.06,271.23 354.18,271.23 354.93,271.6 355.67,272.35 " stroke-width="0.53098" stroke-linecap="round" stroke-linejoin="round" />
<line x1="364.65" y1="279.08" x2="364.65" y2="271.23" stroke-width="0.53098" stroke-linecap="round" />
<polyline points="364.65,275.34 365.4,276.09 366.14,276.46 367.27,276.46 368.01,276.09 368.76,275.34 369.14,274.22 369.14,273.47 368.76,272.35 368.01,271.6 367.27,271.23 366.14,271.23 365.4,271.6 364.65,272.35 " stroke-width="0.53098" stroke-linecap="round" stroke-linejoin="round" />
<polyline points="371.38,274.22 375.87,274.22 375.87,274.97 375.49,275.72 375.12,276.09 374.37,276.46 373.25,276.46 372.5,276.09 371.75,275.34 371.38,274.22 371.38,273.47 371.75,272.35 372.5,271.6 373.25,271.23 374.37,271.23 375.12,271.6 375.87,272.35 " stroke-width="0.53098" stroke-linecap="round" stroke-linejoin="round" />
<polyline points="382.22,275.34 381.85,276.09 380.73,276.46 379.61,276.46 378.48,276.09 378.11,275.34 378.48,274.59 379.23,274.22 381.1,273.85 381.85,273.47 382.22,272.72 382.22,272.35 381.85,271.6 380.73,271.23 379.61,271.23 378.48,271.6 378.11,272.35 " stroke-width="0.53098" stroke-linecap="round" stroke-linejoin="round" />
<polyline points="385.21,279.08 385.21,272.72 385.59,271.6 386.34,271.23 387.08,271.23 " stroke-width="0.53098" stroke-linecap="round" stroke-linejoin="round" />
<line x1="384.09" y1="276.46" x2="386.71" y2="276.46" stroke-width="0.53098" stroke-linecap="round" />
<polyline points="397.55,279.08 396.81,279.08 396.06,278.71 395.68,277.59 395.68,271.23 " stroke-width="0.53098" stroke-linecap="round" stroke-linejoin="round" />
<line x1="394.56" y1="276.46" x2="397.18" y2="276.46" stroke-width="0.53098" stroke-linecap="round" />
<polygon points="399.42,279.08 399.8,278.71 400.17,279.08 399.8,279.46 " stroke-width="0.53098" stroke-linejoin="round" />
<line x1="399.8" y1="276.46" x2="399.8" y2="271.23" stroke-width="0.53098" stroke-linecap="round" />
<polyline points="403.16,279.08 403.16,272.72 403.54,271.6 404.28,271.23 405.03,271.23 " stroke-width="0.53098" stroke-linecap="round" stroke-linejoin="round" />
<line x1="402.04" y1="276.46" x2="404.66" y2="276.46" stroke-width="0.53098" stroke-linecap="round" />
<line x1="407.28" y1="276.46" x2="407.28" y2="271.23" stroke-width="0.53098" stroke-linecap="round" />
<polyline points="407.28,274.97 408.4,276.09 409.15,276.46 410.27,276.46 411.02,276.09 411.39,274.97 411.39,271.23 " stroke-width="0.53098" stroke-linecap="round" stroke-linejoin="round" />
<polyline points="414.01,274.22 418.49,274.22 418.49,274.97 418.12,275.72 417.75,276.09 417,276.46 415.88,276.46 415.13,276.09 414.38,275.34 414.01,274.22 414.01,273.47 414.38,272.35 415.13,271.6 415.88,271.23 417,271.23 417.75,271.6 418.49,272.35 " stroke-width="0.53098" stroke-linecap="round" stroke-linejoin="round" />
<polyline points="424.85,275.34 424.48,276.09 423.35,276.46 422.23,276.46 421.11,276.09 420.74,275.34 421.11,274.59 421.86,274.22 423.73,273.85 424.48,273.47 424.85,272.72 424.85,272.35 424.48,271.6 423.35,271.23 422.23,271.23 421.11,271.6 420.74,272.35 " stroke-width="0.53098" stroke-linecap="round" stroke-linejoin="round" />
<polyline points="431.21,275.34 430.83,276.09 429.71,276.46 428.59,276.46 427.47,276.09 427.09,275.34 427.47,274.59 428.22,274.22 430.09,273.85 430.83,273.47 431.21,272.72 431.21,272.35 430.83,271.6 429.71,271.23 428.59,271.23 427.47,271.6 427.09,272.35 " stroke-width="0.53098" stroke-linecap="round" stroke-linejoin="round" />
<line x1="566.06" y1="51.798" x2="562.98" y2="51.798" stroke-width="0.70588" />
<line x1="566.06" y1="62.115" x2="562.98" y2="62.115" stroke-width="0.70588" />
<line x1="566.06" y1="72.432" x2="562.98" y2="72.432" stroke-width="0.70588" />
<line x1="566.06" y1="82.749" x2="562.98" y2="82.749" stroke-width="0.70588" />
<line x1="566.06" y1="93.067" x2="562.98" y2="93.067" stroke-width="0.70588" />
<line x1="566.06" y1="103.38" x2="562.98" y2="103.38" stroke-width="0.70588" />
<line x1="566.06" y1="113.7" x2="562.98" y2="113.7" stroke-width="0.70588" />
<line x1="566.06" y1="124.02" x2="562.98" y2="124.02" stroke-width="0.70588" />
<line x1="566.06" y1="134.34" x2="562.98" y2="134.34" stroke-width="0.70588" />
<line x1="566.06" y1="144.65" x2="562.98" y2="144.65" stroke-width="0.70588" />
<line x1="566.06" y1="154.97" x2="562.98" y2="154.97" stroke-width="0.70588" />
<line x1="566.06" y1="165.29" x2="562.98" y2="165.29" stroke-width="0.70588" />
<line x1="566.06" y1="175.6" x2="562.98" y2="175.6" stroke-width="0.70588" />
<line x1="566.06" y1="185.92" x2="562.98" y2="185.92" stroke-width="0.70588" />
<line x1="566.06" y1="196.24" x2="562.98" y2="196.24" stroke-width="0.70588" />
<line x1="566.06" y1="206.56" x2="562.98" y2="206.56" stroke-width="0.70588" />
<line x1="566.06" y1="216.87" x2="562.98" y2="216.87" stroke-width="0.70588" />
<line x1="566.06" y1="227.19" x2="562.98" y2="227.19" stroke-width="0.70588" />
<line x1="566.06" y1="237.51" x2="562.98" y2="237.51" stroke-width="0.70588" />
<line x1="566.06" y1="247.82" x2="562.98" y2="247.82" stroke-width="0.70588" />
<line x1="566.06" y1="258.14" x2="562.98" y2="258.14" stroke-width="0.70588" />
<line x1="566.06" y1="51.798" x2="559.89" y2="51.798" stroke-width="0.70588" />
<line x1="566.06" y1="103.38" x2="559.89" y2="103.38" stroke-width="0.70588" />
<line x1="566.06" y1="154.97" x2="559.89" y2="154.97" stroke-width="0.70588" />
<line x1="566.06" y1="206.56" x2="559.89" y2="206.56" stroke-width="0.70588" />
<line x1="566.06" y1="258.14" x2="559.89" y2="258.14" stroke-width="0.70588" />
<line x1="566.06" y1="51.798" x2="566.06" y2="258.14" stroke-width="0.70588" />
<line x1="73.488" y1="258.14" x2="73.488" y2="255.06" stroke-width="0.70588" />
<line x1="98.117" y1="258.14" x2="98.117" y2="255.06" stroke-width="0.70588" />
<line x1="122.75" y1="258.14" x2="122.75" y2="255.06" stroke-width="0.70588" />
<line x1="147.37" y1="258.14" x2="147.37" y2="255.06" stroke-width="0.70588" />
<line x1="172" y1="258.14" x2="172" y2="255.06" stroke-width="0.70588" />
<line x1="196.63" y1="258.14" x2="196.63" y2="255.06" stroke-width="0.70588" />
<line x1="221.26" y1="258.14" x2="221.26" y2="255.06" stroke-width="0.70588" />
<line x1="245.89" y1="258.14" x2="245.89" y2="255.06" stroke-width="0.70588" />
<line x1="270.52" y1="258.14" x2="270.52" y2="255.06" stroke-width="0.70588" />
<line x1="295.15" y1="258.14" x2="295.15" y2="255.06" stroke-width="0.70588" />
<line x1="319.78" y1="258.14" x2="319.78" y2="255.06" stroke-width="0.70588" />
<line x1="344.41" y1="258.14" x2="344.41" y2="255.06" stroke-width="0.70588" />
<line x1="369.03" y1="258.14" x2="369.03" y2="255.06" stroke-width="0.70588" />
<line x1="393.66" y1="258.14" x2="393.66" y2="255.06" stroke-width="0.70588" />
<line x1="418.29" y1="258.14" x2="418.29" y2="255.06" stroke-width="0.70588" />
<line x1="442.92" y1="258.14" x2="442.92" y2="255.06" stroke-width="0.70588" />
<line x1="467.55" y1="258.14" x2="467.55" y2="255.06" stroke-width="0.70588" />
<line x1="492.18" y1="258.14" x2="492.18" y2="255.06" stroke-width="0.70588" />
<line x1="516.81" y1="258.14" x2="516.81" y2="255.06" stroke-width="0.70588" />
<line x1="541.44" y1="258.14" x2="541.44" y2="255.06" stroke-width="0.70588" />
<line x1="566.06" y1="258.14" x2="566.06" y2="255.06" stroke-width="0.70588" />
<line x1="73.488" y1="258.14" x2="73.488" y2="251.97" stroke-width="0.70588" />
<line x1="196.63" y1="258.14" x2="196.63" y2="251.97" stroke-width="0.70588" />
<line x1="319.78" y1="258.14" x2="319.78" y2="251.97" stroke-width="0.70588" />
<line x1="442.92" y1="258.14" x2="442.92" y2="251.97" stroke-width="0.70588" />
<line x1="566.06" y1="258.14" x2="566.06" y2="251.97" stroke-width="0.70588" />
<line x1="73.488" y1="258.14" x2="566.06" y2="258.14" stroke-width="0.70588" />
<line x1="73.488" y1="51.798" x2="76.573" y2="51.798" stroke-width="0.70588" />
<line x1="73.488" y1="62.115" x2="76.573" y2="62.115" stroke-width="0.70588" />
<line x1="73.488" y1="72.432" x2="76.573" y2="72.432" stroke-width="0.70588" />
<line x1="73.488" y1="82.749" x2="76.573" y2="82.749" stroke-width="0.70588" />
<line x1="73.488" y1="93.067" x2="76.573" y2="93.067" stroke-width="0.70588" />
<line x1="73.488" y1="103.38" x2="76.573" y2="103.38" stroke-width="0.70588" />
<line x1="73.488" y1="113.7" x2="76.573" y2="113.7" stroke-width="0.70588" />
<line x1="73.488" y1="124.02" x2="76.573" y2="124.02" stroke-width="0.70588" />
<line x1="73.488" y1="134.34" x2="76.573" y2="134.34" stroke-width="0.70588" />
<line x1="73.488" y1="144.65" x2="76.573" y2="144.65" stroke-width="0.70588" />
<line x1="73.488" y1="154.97" x2="76.573" y2="154.97" stroke-width="0.70588" />
<line x1="73.488" y1="165.29" x2="76.573" y2="165.29" stroke-width="0.70588" />
<line x1="73.488" y1="175.6" x2="76.573" y2="175.6" stroke-width="0.70588" />
<line x1="73.488" y1="185.92" x2="76.573" y2="185.92" stroke-width="0.70588" />
<line x1="73.488" y1="196.24" x2="76.573" y2="196.24" stroke-width="0.70588" />
<line x1="73.488" y1="206.56" x2="76.573" y2="206.56" stroke-width="0.70588" />
<line x1="73.488" y1="216.87" x2="76.573" y2="216.87" stroke-width="0.70588" />
<line x1="73.488" y1="227.19" x2="76.573" y2="227.19" stroke-width="0.70588" />
<line x1="73.488" y1="237.51" x2="76.573" y2="237.51" stroke-width="0.70588" />
<line x1="73.488" y1="247.82" x2="76.573" y2="247.82" stroke-width="0.70588" />
<line x1="73.488" y1="258.14" x2="76.573" y2="258.14" stroke-width="0.70588" />
<line x1="73.488" y1="51.798" x2="79.658" y2="51.798" stroke-width="0.70588" />
<line x1="73.488" y1="103.38" x2="79.658" y2="103.38" stroke-width="0.70588" />
<line x1="73.488" y1="154.97" x2="79.658" y2="154.97" stroke-width="0.70588" />
<line x1="73.488" y1="206.56" x2="79.658" y2="206.56" stroke-width="0.70588" />
<line x1="73.488" y1="258.14" x2="79.658" y2="258.14" stroke-width="0.70588" />
<line x1="73.488" y1="51.798" x2="73.488" y2="258.14" stroke-width="0.70588" />
<polygon points="63.205,56.285 62.084,55.911 61.336,54.789 60.962,52.92 60.962,51.798 61.336,49.928 62.084,48.806 63.205,48.433 63.953,48.433 65.075,48.806 65.823,49.928 66.197,51.798 66.197,52.92 65.823,54.789 65.075,55.911 63.953,56.285 " stroke-width="0.53098" stroke-linejoin="round" />
<polygon points="51.988,107.87 50.866,107.5 50.118,106.38 49.744,104.51 49.744,103.38 50.118,101.51 50.866,100.39 51.988,100.02 52.735,100.02 53.857,100.39 54.605,101.51 54.979,103.38 54.979,104.51 54.605,106.38 53.857,107.5 52.735,107.87 " stroke-width="0.53098" stroke-linejoin="round" />
<polygon points="57.97,100.77 57.596,100.39 57.97,100.02 58.344,100.39 " stroke-width="0.53098" stroke-linejoin="round" />
<polyline points="65.449,107.87 61.71,107.87 61.336,104.51 61.71,104.88 62.831,105.25 63.953,105.25 65.075,104.88 65.823,104.13 66.197,103.01 66.197,102.26 65.823,101.14 65.075,100.39 63.953,100.02 62.831,100.02 61.71,100.39 61.336,100.77 60.962,101.51 " stroke-width="0.53098" stroke-linecap="round" stroke-linejoin="round" />
<polyline points="62.084,157.96 62.831,158.34 63.953,159.46 63.953,151.6 " stroke-width="0.53098" stroke-linecap="round" stroke-linejoin="round" />
<polyline points="50.866,209.55 51.614,209.92 52.735,211.04 52.735,203.19 " stroke-width="0.53098" stroke-linecap="round" stroke-linejoin="round" />
<polygon points="57.97,203.94 57.596,203.56 57.97,203.19 58.344,203.56 " stroke-width="0.53098" stroke-linejoin="round" />
<polyline points="65.449,211.04 61.71,211.04 61.336,207.68 61.71,208.05 62.831,208.43 63.953,208.43 65.075,208.05 65.823,207.3 66.197,206.18 66.197,205.43 65.823,204.31 65.075,203.56 63.953,203.19 62.831,203.19 61.71,203.56 61.336,203.94 60.962,204.69 " stroke-width="0.53098" stroke-linecap="round" stroke-linejoin="round" />
<polyline points="61.336,260.76 61.336,261.13 61.71,261.88 62.084,262.25 62.831,262.63 64.327,262.63 65.075,262.25 65.449,261.88 65.823,261.13 65.823,260.39 65.449,259.64 64.701,258.52 60.962,254.78 66.197,254.78 " stroke-width="0.53098" stroke-linecap="round" stroke-linejoin="round" />
<line x1="33.852" y1="136.09" x2="41.704" y2="136.09" stroke-width="0.53098" stroke-linecap="round" />
<line x1="33.852" y1="136.09" x2="33.852" y2="140.95" stroke-width="0.53098" stroke-linecap="round" />
<line x1="37.591" y1="136.09" x2="37.591" y2="139.08" stroke-width="0.53098" stroke-linecap="round" />
<polygon points="33.852,142.44 34.226,142.82 33.852,143.19 33.478,142.82 " stroke-width="0.53098" stroke-linejoin="round" />
<line x1="36.469" y1="142.82" x2="41.704" y2="142.82" stroke-width="0.53098" stroke-linecap="round" />
<polyline points="33.852,146.18 40.209,146.18 41.331,146.56 41.704,147.3 41.704,148.05 " stroke-width="0.53098" stroke-linecap="round" stroke-linejoin="round" />
<line x1="36.469" y1="145.06" x2="36.469" y2="147.68" stroke-width="0.53098" stroke-linecap="round" />
<line x1="36.469" y1="150.3" x2="41.704" y2="150.3" stroke-width="0.53098" stroke-linecap="round" />
<polyline points="37.965,150.3 36.843,151.42 36.469,152.17 36.469,153.29 36.843,154.03 37.965,154.41 41.704,154.41 " stroke-width="0.53098" stroke-linecap="round" stroke-linejoin="round" />
<polyline points="38.713,157.03 38.713,161.51 37.965,161.51 37.217,161.14 36.843,160.77 36.469,160.02 36.469,158.9 36.843,158.15 37.591,157.4 38.713,157.03 39.461,157.03 40.583,157.4 41.331,158.15 41.704,158.9 41.704,160.02 41.331,160.77 40.583,161.51 " stroke-width="0.53098" stroke-linecap="round" stroke-linejoin="round" />
<polyline points="37.591,167.87 36.843,167.5 36.469,166.37 36.469,165.25 36.843,164.13 37.591,163.76 38.339,164.13 38.713,164.88 39.087,166.75 39.461,167.5 40.209,167.87 40.583,167.87 41.331,167.5 41.704,166.37 41.704,165.25 41.331,164.13 40.583,163.76 " stroke-width="0.53098" stroke-linecap="round" stroke-linejoin="round" />
<polyline points="37.591,174.23 36.843,173.85 36.469,172.73 36.469,171.61 36.843,170.49 37.591,170.11 38.339,170.49 38.713,171.24 39.087,173.11 39.461,173.85 40.209,174.23 40.583,174.23 41.331,173.85 41.704,172.73 41.704,171.61 41.331,170.49 40.583,170.11 " stroke-width="0.53098" stroke-linecap="round" stroke-linejoin="round" />
<line x1="73.488" y1="51.798" x2="73.488" y2="54.883" stroke-width="0.70588" />
<line x1="98.117" y1="51.798" x2="98.117" y2="54.883" stroke-width="0.70588" />
<line x1="122.75" y1="51.798" x2="122.75" y2="54.883" stroke-width="0.70588" />
<line x1="147.37" y1="51.798" x2="147.37" y2="54.883" stroke-width="0.70588" />
<line x1="172" y1="51.798" x2="172" y2="54.883" stroke-width="0.70588" />
<line x1="196.63" y1="51.798" x2="196.63" y2="54.883" stroke-width="0.70588" />
<line x1="221.26" y1="51.798" x2="221.26" y2="54.883" stroke-width="0.70588" />
<line x1="245.89" y1="51.798" x2="245.89" y2="54.883" stroke-width="0.70588" />
<line x1="270.52" y1="51.798" x2="270.52" y2="54.883" stroke-width="0.70588" />
<line x1="295.15" y1="51.798" x2="295.15" y2="54.883" stroke-width="0.70588" />
<line x1="319.78" y1="51.798" x2="319.78" y2="54.883" stroke-width="0.70588" />
<line x1="344.41" y1="51.798" x2="344.41" y2="54.883" stroke-width="0.70588" />
<line x1="369.03" y1="51.798" x2="369.03" y2="54.883" stroke-width="0.70588" />
<line x1="393.66" y1="51.798" x2="393.66" y2="54.883" stroke-width="0.70588" />
<line x1="418.29" y1="51.798" x2="418.29" y2="54.883" stroke-width="0.70588" />
<line x1="442.92" y1="51.798" x2="442.92" y2="54.883" stroke-width="0.70588" />
<line x1="467.55" y1="51.798" x2="467.55" y2="54.883" stroke-width="0.70588" />
<line x1="492.18" y1="51.798" x2="492.18" y2="54.883" stroke-width="0.70588" />
<line x1="516.81" y1="51.798" x2="516.81" y2="54.883" stroke-width="0.70588" />
<line x1="541.44" y1="51.798" x2="541.44" y2="54.883" stroke-width="0.70588" />
<line x1="566.06" y1="51.798" x2="566.06" y2="54.883" stroke-width="0.70588" />
<line x1="73.488" y1="51.798" x2="73.488" y2="57.968" stroke-width="0.70588" />
<line x1="196.63" y1="51.798" x2="196.63" y2="57.968" stroke-width="0.70588" />
<line x1="319.78" y1="51.798" x2="319.78" y2="57.968" stroke-width="0.70588" />
<line x1="442.92" y1="51.798" x2="442.92" y2="57.968" stroke-width="0.70588" />
<line x1="566.06" y1="51.798" x2="566.06" y2="57.968" stroke-width="0.70588" />
<line x1="73.488" y1="51.798" x2="566.06" y2="51.798" stroke-width="0.70588" />
<line x1="66.384" y1="39.458" x2="73.115" y2="39.458" stroke-width="0.53098" stroke-linecap="round" />
<polyline points="76.854,42.45 77.602,42.824 78.723,43.945 78.723,36.093 " stroke-width="0.53098" stroke-linecap="round" stroke-linejoin="round" />
<line x1="183.92" y1="39.458" x2="190.65" y2="39.458" stroke-width="0.53098" stroke-linecap="round" />
<polygon points="195.51,43.945 194.39,43.571 193.64,42.45 193.27,40.58 193.27,39.458 193.64,37.589 194.39,36.467 195.51,36.093 196.26,36.093 197.38,36.467 198.13,37.589 198.5,39.458 198.5,40.58 198.13,42.45 197.38,43.571 196.26,43.945 " stroke-width="0.53098" stroke-linejoin="round" />
<polygon points="201.49,36.841 201.12,36.467 201.49,36.093 201.87,36.467 " stroke-width="0.53098" stroke-linejoin="round" />
<polyline points="208.97,43.945 205.23,43.945 204.86,40.58 205.23,40.954 206.35,41.328 207.48,41.328 208.6,40.954 209.35,40.206 209.72,39.084 209.72,38.336 209.35,37.215 208.6,36.467 207.48,36.093 206.35,36.093 205.23,36.467 204.86,36.841 204.48,37.589 " stroke-width="0.53098" stroke-linecap="round" stroke-linejoin="round" />
<polygon points="319.4,43.945 318.28,43.571 317.53,42.45 317.16,40.58 317.16,39.458 317.53,37.589 318.28,36.467 319.4,36.093 320.15,36.093 321.27,36.467 322.02,37.589 322.39,39.458 322.39,40.58 322.02,42.45 321.27,43.571 320.15,43.945 " stroke-width="0.53098" stroke-linejoin="round" />
<polygon points="436.94,43.945 435.82,43.571 435.07,42.45 434.69,40.58 434.69,39.458 435.07,37.589 435.82,36.467 436.94,36.093 437.69,36.093 438.81,36.467 439.56,37.589 439.93,39.458 439.93,40.58 439.56,42.45 438.81,43.571 437.69,43.945 " stroke-width="0.53098" stroke-linejoin="round" />
<polygon points="442.92,36.841 442.55,36.467 442.92,36.093 443.29,36.467 " stroke-width="0.53098" stroke-linejoin="round" />
<polyline points="450.4,43.945 446.66,43.945 446.29,40.58 446.66,40.954 447.78,41.328 448.9,41.328 450.03,40.954 450.77,40.206 451.15,39.084 451.15,38.336 450.77,37.215 450.03,36.467 448.9,36.093 447.78,36.093 446.66,36.467 446.29,36.841 445.91,37.589 " stroke-width="0.53098" stroke-linecap="round" stroke-linejoin="round" />
<polyline points="564.57,42.45 565.32,42.824 566.44,43.945 566.44,36.093 " stroke-width="0.53098" stroke-linecap="round" stroke-linejoin="round" />
<polyline points="289.86,25.623 289.49,26.371 288.74,27.119 287.99,27.493 286.5,27.493 285.75,27.119 285,26.371 284.63,25.623 284.25,24.501 284.25,22.631 284.63,21.51 285,20.762 285.75,20.014 286.5,19.64 287.99,19.64 288.74,20.014 289.49,20.762 289.86,21.51 289.86,22.631 " stroke-width="0.53098" stroke-linecap="round" stroke-linejoin="round" />
<line x1="287.99" y1="22.631" x2="289.86" y2="22.631" stroke-width="0.53098" stroke-linecap="round" />
<polyline points="292.11,22.631 296.59,22.631 296.59,23.379 296.22,24.127 295.84,24.501 295.1,24.875 293.98,24.875 293.23,24.501 292.48,23.753 292.11,22.631 292.11,21.884 292.48,20.762 293.23,20.014 293.98,19.64 295.1,19.64 295.84,20.014 296.59,20.762 " stroke-width="0.53098" stroke-linecap="round" stroke-linejoin="round" />
<line x1="299.21" y1="24.875" x2="299.21" y2="19.64" stroke-width="0.53098" stroke-linecap="round" />
<polyline points="299.21,23.379 300.33,24.501 301.08,24.875 302.2,24.875 302.95,24.501 303.32,23.379 303.32,19.64 " stroke-width="0.53098" stroke-linecap="round" stroke-linejoin="round" />
<polyline points="305.94,22.631 310.43,22.631 310.43,23.379 310.05,24.127 309.68,24.501 308.93,24.875 307.81,24.875 307.06,24.501 306.31,23.753 305.94,22.631 305.94,21.884 306.31,20.762 307.06,20.014 307.81,19.64 308.93,19.64 309.68,20.014 310.43,20.762 " stroke-width="0.53098" stroke-linecap="round" stroke-linejoin="round" />
<line x1="313.05" y1="24.875" x2="313.05" y2="19.64" stroke-width="0.53098" stroke-linecap="round" />
<polyline points="313.05,22.631 313.42,23.753 314.17,24.501 314.92,24.875 316.04,24.875 " stroke-width="0.53098" stroke-linecap="round" stroke-linejoin="round" />
<line x1="322.02" y1="24.875" x2="322.02" y2="19.64" stroke-width="0.53098" stroke-linecap="round" />
<polyline points="322.02,23.753 321.27,24.501 320.52,24.875 319.4,24.875 318.65,24.501 317.91,23.753 317.53,22.631 317.53,21.884 317.91,20.762 318.65,20.014 319.4,19.64 320.52,19.64 321.27,20.014 322.02,20.762 " stroke-width="0.53098" stroke-linecap="round" stroke-linejoin="round" />
<polyline points="325.39,27.493 325.39,21.136 325.76,20.014 326.51,19.64 327.26,19.64 " stroke-width="0.53098" stroke-linecap="round" stroke-linejoin="round" />
<line x1="324.26" y1="24.875" x2="326.88" y2="24.875" stroke-width="0.53098" stroke-linecap="round" />
<polygon points="329.12,27.493 329.5,27.119 329.87,27.493 329.5,27.866 " stroke-width="0.53098" stroke-linejoin="round" />
<line x1="329.5" y1="24.875" x2="329.5" y2="19.64" stroke-width="0.53098" stroke-linecap="round" />
<polygon points="333.99,24.875 333.24,24.501 332.49,23.753 332.12,22.631 332.12,21.884 332.49,20.762 333.24,20.014 333.99,19.64 335.11,19.64 335.86,20.014 336.6,20.762 336.98,21.884 336.98,22.631 336.6,23.753 335.86,24.501 335.11,24.875 " stroke-width="0.53098" stroke-linejoin="round" />
<line x1="339.59" y1="24.875" x2="339.59" y2="19.64" stroke-width="0.53098" stroke-linecap="round" />
<polyline points="339.59,23.379 340.72,24.501 341.46,24.875 342.59,24.875 343.33,24.501 343.71,23.379 343.71,19.64 " stroke-width="0.53098" stroke-linecap="round" stroke-linejoin="round" />
<polyline points="350.44,23.753 350.06,24.501 348.94,24.875 347.82,24.875 346.7,24.501 346.33,23.753 346.7,23.005 347.45,22.631 349.32,22.258 350.06,21.884 350.44,21.136 350.44,20.762 350.06,20.014 348.94,19.64 347.82,19.64 346.7,20.014 346.33,20.762 " stroke-width="0.53098" stroke-linecap="round" stroke-linejoin="round" />
</g>
</svg>
